<svg width="147" height="129" viewBox="0 0 147 129" fill="none" xmlns="http://www.w3.org/2000/svg">
<path d="M91.934 60.9972L77.6647 89.5359C75.942 93.0099 70.9463 92.8951 69.3672 89.3636L53.0307 53.1017L44.4174 73.6874H17.4004L69.7979 127.233C71.8363 129.329 75.1381 129.329 77.1766 127.233L129.603 73.6874H98.2791L91.934 60.9972ZM136.005 12.2173L135.316 11.4996C120.53 -3.60239 96.3268 -3.60239 81.5119 11.4996L73.5016 19.7109L65.4912 11.5283C50.7051 -3.60239 26.4731 -3.60239 11.6869 11.5283L10.9979 12.2173C-2.98436 26.5154 -3.58729 49.2831 8.90197 64.4999H38.302L48.6092 39.7511C50.1596 36.0474 55.385 35.9613 57.0502 39.6363L73.76 76.7595L87.8283 48.6515C89.5223 45.2636 94.3457 45.2636 96.0397 48.6515L103.964 64.4999H138.101C150.59 49.2831 149.988 26.5154 136.005 12.2173Z" fill="#5A9BD5"/>
</svg>
